<svg width="249" height="230" viewBox="0 0 249 230" fill="none" xmlns="http://www.w3.org/2000/svg">
<g filter="url(#filter0_ddii_708_2701)">
<path d="M128.065 136.45L128.377 136.761L128.725 136.491C134.692 131.859 142.03 129.342 149.584 129.333C158.623 129.333 167.292 132.924 173.684 139.316C180.075 145.708 183.666 154.377 183.666 163.417C183.666 165.118 182.99 166.751 181.787 167.954C180.584 169.157 178.951 169.833 177.25 169.833C175.548 169.833 173.916 169.157 172.712 167.954C171.509 166.751 170.833 165.118 170.833 163.417V163.416C170.828 159.426 169.7 155.519 167.578 152.14C165.456 148.762 162.425 146.049 158.834 144.312C155.242 142.575 151.234 141.885 147.268 142.32C143.302 142.754 139.538 144.297 136.408 146.77L136.075 147.033L136.28 147.404C140.157 154.423 142.183 162.314 142.166 170.332V170.333C142.166 172.035 141.49 173.667 140.287 174.871C139.084 176.074 137.451 176.75 135.75 176.75C134.048 176.75 132.416 176.074 131.212 174.871C130.009 173.667 129.333 172.035 129.333 170.333C129.333 161.029 125.637 152.105 119.057 145.526C112.478 138.946 103.554 135.25 94.2497 135.25C84.945 135.25 76.0214 138.946 69.442 145.526C62.8626 152.105 59.1663 161.029 59.1663 170.333C59.1663 172.035 58.4903 173.667 57.2869 174.871C56.0836 176.074 54.4515 176.75 52.7497 176.75C51.0479 176.75 49.4158 176.074 48.2124 174.871C47.0091 173.667 46.3331 172.035 46.333 170.334C46.3459 160.87 49.1606 151.623 54.4223 143.757C59.684 135.891 67.1571 129.759 75.8991 126.135C84.6411 122.511 94.2606 121.557 103.544 123.392C112.828 125.228 121.36 129.772 128.065 136.45ZM109.343 103.005C104.875 105.99 99.6227 107.583 94.2497 107.583C87.0446 107.583 80.1347 104.721 75.0399 99.6264C69.9452 94.5317 67.083 87.6217 67.083 80.4167C67.083 75.0436 68.6763 69.7912 71.6614 65.3237C74.6465 60.8562 78.8894 57.3741 83.8534 55.318C88.8175 53.2618 94.2798 52.7238 99.5496 53.772C104.819 54.8202 109.66 57.4076 113.459 61.2069C117.259 65.0063 119.846 69.8469 120.894 75.1167C121.943 80.3865 121.405 85.8489 119.348 90.8129C117.292 95.777 113.81 100.02 109.343 103.005ZM102.213 68.4989C99.8557 66.924 97.0845 66.0833 94.2497 66.0833C90.4482 66.0833 86.8025 67.5935 84.1145 70.2815C81.4265 72.9695 79.9163 76.6152 79.9163 80.4167C79.9163 83.2515 80.757 86.0227 82.3319 88.3799C83.9069 90.737 86.1455 92.5741 88.7645 93.659C91.3836 94.7438 94.2656 95.0277 97.046 94.4746C99.8264 93.9216 102.38 92.5564 104.385 90.5519C106.389 88.5473 107.755 85.9934 108.308 83.213C108.861 80.4326 108.577 77.5506 107.492 74.9315C106.407 72.3125 104.57 70.0739 102.213 68.4989ZM160.833 118.004C157.503 120.229 153.588 121.417 149.583 121.417C144.212 121.417 139.062 119.283 135.264 115.486C131.466 111.688 129.333 106.537 129.333 101.167C129.333 97.1616 130.521 93.2465 132.746 89.9164C134.971 86.5863 138.133 83.9908 141.834 82.4581C145.534 80.9254 149.605 80.5244 153.534 81.3058C157.462 82.0871 161.07 84.0158 163.902 86.8478C166.734 89.6798 168.663 93.288 169.444 97.2161C170.225 101.144 169.824 105.216 168.292 108.916C166.759 112.616 164.163 115.779 160.833 118.004ZM153.703 95C152.484 94.185 151.05 93.75 149.583 93.75C147.616 93.75 145.73 94.5314 144.339 95.9223C142.948 97.3132 142.166 99.1997 142.166 101.167C142.166 102.634 142.601 104.067 143.416 105.287C144.231 106.507 145.39 107.457 146.745 108.019C148.1 108.58 149.591 108.727 151.03 108.441C152.469 108.155 153.79 107.448 154.827 106.411C155.865 105.374 156.571 104.052 156.857 102.614C157.143 101.175 156.996 99.6837 156.435 98.3284C155.874 96.9732 154.923 95.8149 153.703 95Z" fill="url(#paint0_linear_708_2701)" stroke="url(#paint1_linear_708_2701)"/>
</g>
<defs>
<filter id="filter0_ddii_708_2701" x="-32" y="-28" width="294" height="294" filterUnits="userSpaceOnUse" color-interpolation-filters="sRGB">
<feFlood flood-opacity="0" result="BackgroundImageFix"/>
<feColorMatrix in="SourceAlpha" type="matrix" values="0 0 0 0 0 0 0 0 0 0 0 0 0 0 0 0 0 0 127 0" result="hardAlpha"/>
<feOffset dy="4"/>
<feGaussianBlur stdDeviation="32"/>
<feComposite in2="hardAlpha" operator="out"/>
<feColorMatrix type="matrix" values="0 0 0 0 0.450738 0 0 0 0 0.624671 0 0 0 0 1 0 0 0 0.25 0"/>
<feBlend mode="normal" in2="BackgroundImageFix" result="effect1_dropShadow_708_2701"/>
<feColorMatrix in="SourceAlpha" type="matrix" values="0 0 0 0 0 0 0 0 0 0 0 0 0 0 0 0 0 0 127 0" result="hardAlpha"/>
<feOffset/>
<feGaussianBlur stdDeviation="8"/>
<feComposite in2="hardAlpha" operator="out"/>
<feColorMatrix type="matrix" values="0 0 0 0 0.142791 0 0 0 0 0.0683292 0 0 0 0 0.431331 0 0 0 1 0"/>
<feBlend mode="normal" in2="effect1_dropShadow_708_2701" result="effect2_dropShadow_708_2701"/>
<feBlend mode="normal" in="SourceGraphic" in2="effect2_dropShadow_708_2701" result="shape"/>
<feColorMatrix in="SourceAlpha" type="matrix" values="0 0 0 0 0 0 0 0 0 0 0 0 0 0 0 0 0 0 127 0" result="hardAlpha"/>
<feOffset dy="-8"/>
<feGaussianBlur stdDeviation="4"/>
<feComposite in2="hardAlpha" operator="arithmetic" k2="-1" k3="1"/>
<feColorMatrix type="matrix" values="0 0 0 0 0.15364 0 0 0 0 0.15364 0 0 0 0 0.561436 0 0 0 0.35 0"/>
<feBlend mode="normal" in2="shape" result="effect3_innerShadow_708_2701"/>
<feColorMatrix in="SourceAlpha" type="matrix" values="0 0 0 0 0 0 0 0 0 0 0 0 0 0 0 0 0 0 127 0" result="hardAlpha"/>
<feOffset dy="4"/>
<feGaussianBlur stdDeviation="2"/>
<feComposite in2="hardAlpha" operator="arithmetic" k2="-1" k3="1"/>
<feColorMatrix type="matrix" values="0 0 0 0 1 0 0 0 0 1 0 0 0 0 1 0 0 0 0.45 0"/>
<feBlend mode="normal" in2="effect3_innerShadow_708_2701" result="effect4_innerShadow_708_2701"/>
</filter>
<linearGradient id="paint0_linear_708_2701" x1="115" y1="52.75" x2="115" y2="177.25" gradientUnits="userSpaceOnUse">
<stop stop-color="#E2E8FF"/>
<stop offset="1" stop-color="#7280FF"/>
</linearGradient>
<linearGradient id="paint1_linear_708_2701" x1="45.833" y1="115" x2="184.166" y2="115" gradientUnits="userSpaceOnUse">
<stop stop-color="#745EE9"/>
<stop offset="1" stop-color="#C6CCFF"/>
</linearGradient>
</defs>
</svg>
